<?xml version="1.0" encoding="UTF-8" standalone="no"?>
<svg height="24" viewBox="0 -960 960 960" width="24" xmlns="http://www.w3.org/2000/svg">>
  <path
     d="m 321.01562,-859.21875 c -13.32883,-0.017 -26.11742,5.26711 -35.54687,14.6875 -19.61649,19.60786 -19.61649,51.40775 0,71.01563 L 578.98438,-480 285.46875,-186.48438 a 50.210106,50.210106 0 0 0 0,70.9375 50.210106,50.210106 0 0 0 70.9375,0 h 0.0781 l 328.98437,-328.98437 a 50.215626,50.215626 0 0 0 10.9375,-16.25 A 50.215626,50.215626 0 0 0 700.23438,-480 50.215626,50.215626 0 0 0 700,-484.375 a 50.215626,50.215626 0 0 0 -0.54688,-4.375 50.215626,50.215626 0 0 0 -0.9375,-4.21875 50.215626,50.215626 0 0 0 -1.32812,-4.21875 50.215626,50.215626 0 0 0 -1.64062,-4.0625 50.215626,50.215626 0 0 0 -2.03126,-3.82812 50.215626,50.215626 0 0 0 -2.34374,-3.75 50.215626,50.215626 0 0 0 -2.73438,-3.4375 50.215626,50.215626 0 0 0 -2.96875,-3.20313 l -328.98437,-329.0625 c -9.41032,-9.40125 -22.16697,-14.68375 -35.46876,-14.6875 z" />
</svg>
